<svg xmlns="http://www.w3.org/2000/svg" xmlns:xlink="http://www.w3.org/1999/xlink" width="100" height="50" viewBox="0 0 3001 3001">
  <defs>
    <clipPath id="clip-0">
      <path clip-rule="nonzero" d="M 0.5 0.5 L 3000.5 0.5 L 3000.5 3000.5 L 0.5 3000.5 Z M 0.5 0.5 "/>
    </clipPath>
    <radialGradient id="radial-pattern-0" gradientUnits="userSpaceOnUse" cx="0" cy="0" fx="0" fy="0" r="1500" gradientTransform="matrix(1, 0, 0, 1, 1500.5, 1500.5)">
      <stop offset="0" stop-color="rgb(99.905396%, 99.90387%, 99.90387%)" stop-opacity="1"/>
      <stop offset="0.015625" stop-color="rgb(99.64447%, 99.638367%, 99.639893%)" stop-opacity="1"/> <stop offset="0.0429688" stop-color="rgb(99.311829%, 99.299622%, 99.302673%)" stop-opacity="1"/> <stop offset="0.0703125" stop-color="rgb(98.979187%, 98.960876%, 98.965454%)" stop-opacity="1"/> <stop offset="0.0976562" stop-color="rgb(98.64502%, 98.620605%, 98.626709%)" stop-opacity="1"/> <stop offset="0.125" stop-color="rgb(98.312378%, 98.28186%, 98.28949%)" stop-opacity="1"/> <stop offset="0.152344" stop-color="rgb(98.002625%, 97.966003%, 97.975159%)" stop-opacity="1"/> <stop offset="0.175781" stop-color="rgb(97.717285%, 97.676086%, 97.686768%)" stop-opacity="1"/> <stop offset="0.199219" stop-color="rgb(97.43042%, 97.384644%, 97.395325%)" stop-opacity="1"/> <stop offset="0.222656" stop-color="rgb(97.146606%, 97.094727%, 97.106934%)" stop-opacity="1"/> <stop offset="0.246094" stop-color="rgb(96.862793%, 96.80481%, 96.820068%)" stop-opacity="1"/> <stop offset="0.269531" stop-color="rgb(96.600342%, 96.537781%, 96.554565%)" stop-opacity="1"/> <stop offset="0.289062" stop-color="rgb(96.362305%, 96.295166%, 96.311951%)" stop-opacity="1"/> <stop offset="0.308594" stop-color="rgb(96.122742%, 96.052551%, 96.069336%)" stop-opacity="1"/> <stop offset="0.328125" stop-color="rgb(95.88623%, 95.811462%, 95.831299%)" stop-opacity="1"/> <stop offset="0.347656" stop-color="rgb(95.648193%, 95.568848%, 95.588684%)" stop-opacity="1"/> <stop offset="0.367188" stop-color="rgb(95.40863%, 95.326233%, 95.346069%)" stop-opacity="1"/> <stop offset="0.386719" stop-color="rgb(95.196533%, 95.109558%, 95.13092%)" stop-opacity="1"/> <stop offset="0.402344" stop-color="rgb(95.005798%, 94.915771%, 94.93866%)" stop-opacity="1"/> <stop offset="0.417969" stop-color="rgb(94.813538%, 94.718933%, 94.743347%)" stop-opacity="1"/> <stop offset="0.433594" stop-color="rgb(94.624329%, 94.526672%, 94.551086%)" stop-opacity="1"/> <stop offset="0.449219" stop-color="rgb(94.43512%, 94.334412%, 94.358826%)" stop-opacity="1"/> <stop offset="0.464844" stop-color="rgb(94.245911%, 94.140625%, 94.166565%)" stop-opacity="1"/> <stop offset="0.480469" stop-color="rgb(94.05365%, 93.945312%, 93.971252%)" stop-opacity="1"/> <stop offset="0.496094" stop-color="rgb(93.864441%, 93.753052%, 93.780518%)" stop-opacity="1"/> <stop offset="0.511719" stop-color="rgb(93.603516%, 93.486023%, 93.515015%)" stop-opacity="1"/> <stop offset="0.539062" stop-color="rgb(93.269348%, 93.145752%, 93.17627%)" stop-opacity="1"/> <stop offset="0.566406" stop-color="rgb(92.961121%, 92.832947%, 92.86499%)" stop-opacity="1"/> <stop offset="0.589844" stop-color="rgb(92.674255%, 92.539978%, 92.573547%)" stop-opacity="1"/> <stop offset="0.613281" stop-color="rgb(92.388916%, 92.250061%, 92.285156%)" stop-opacity="1"/> <stop offset="0.636719" stop-color="rgb(92.127991%, 91.984558%, 92.019653%)" stop-opacity="1"/> <stop offset="0.65625" stop-color="rgb(91.888428%, 91.741943%, 91.778564%)" stop-opacity="1"/> <stop offset="0.675781" stop-color="rgb(91.651917%, 91.500854%, 91.537476%)" stop-opacity="1"/> <stop offset="0.695312" stop-color="rgb(91.436768%, 91.281128%, 91.319275%)" stop-opacity="1"/> <stop offset="0.710938" stop-color="rgb(91.246033%, 91.087341%, 91.127014%)" stop-opacity="1"/> <stop offset="0.726562" stop-color="rgb(91.056824%, 90.895081%, 90.934753%)" stop-opacity="1"/> <stop offset="0.742188" stop-color="rgb(90.867615%, 90.701294%, 90.742493%)" stop-opacity="1"/> <stop offset="0.757812" stop-color="rgb(90.603638%, 90.432739%, 90.475464%)" stop-opacity="1"/> <stop offset="0.785156" stop-color="rgb(90.296936%, 90.119934%, 90.164185%)" stop-opacity="1"/> <stop offset="0.808594" stop-color="rgb(90.008545%, 89.826965%, 89.872742%)" stop-opacity="1"/> <stop offset="0.832031" stop-color="rgb(89.749146%, 89.561462%, 89.608765%)" stop-opacity="1"/> <stop offset="0.851562" stop-color="rgb(89.535522%, 89.344788%, 89.39209%)" stop-opacity="1"/> <stop offset="0.867188" stop-color="rgb(89.343262%, 89.149475%, 89.196777%)" stop-opacity="1"/> <stop offset="0.882812" stop-color="rgb(89.083862%, 88.885498%, 88.934326%)" stop-opacity="1"/> <stop offset="0.910156" stop-color="rgb(88.798523%, 88.594055%, 88.644409%)" stop-opacity="1"/> <stop offset="0.929688" stop-color="rgb(88.581848%, 88.374329%, 88.426208%)" stop-opacity="1"/> <stop offset="0.945312" stop-color="rgb(88.320923%, 88.108826%, 88.162231%)" stop-opacity="1"/> <stop offset="0.972656" stop-color="rgb(87.986755%, 87.768555%, 87.823486%)" stop-opacity="1"/> <stop offset="1" stop-color="rgb(87.820435%, 87.599182%, 87.654114%)" stop-opacity="1"/>
    </radialGradient>
  </defs>
  <g clip-path="url(#clip-0)">
    <path fill-rule="nonzero" fill="url(#radial-pattern-0)" d="M 0.5 0.5 L 0.5 3000.5 L 3000.5 3000.5 L 3000.5 0.5 Z M 0.5 0.5 "/>
  </g>
  <path fill="none" stroke-width="5" stroke-linecap="butt" stroke-linejoin="miter" stroke="rgb(13.729858%, 12.159729%, 12.548828%)" stroke-opacity="1" stroke-miterlimit="10" d="M 30005 5 L 5 5 L 5 30005 L 30005 30005 Z M 30005 5 " transform="matrix(0.03, 0, 0, -0.03, 0, 3001)"/>
  <path fill-rule="nonzero" fill="rgb(6.266785%, 5.734253%, 5.047607%)" fill-opacity="1" d="M 1295.910156 1804.300781 C 1368.941406 1720.71875 1439.011719 1634.550781 1505.5 1545.660156 L 1505.5 1545.890625 C 1519.070312 1527.789062 1533.078125 1508.871094 1547.421875 1489.070312 L 1547.421875 2401.628906 L 2045.828125 2095.210938 L 1881.5 1232.53125 L 1627.058594 1373.800781 C 1661.019531 1322.660156 1690.78125 1274.03125 1716.769531 1227.921875 L 1911.691406 1119.769531 L 2352.671875 1364.578125 L 2755.5 2572.660156 L 2092.351562 2165.210938 C 1896.839844 2285.53125 1701.820312 2406.710938 1505.5 2525.710938 C 1309.128906 2406.789062 1114.160156 2285.53125 918.644531 2165.210938 L 255.5 2572.660156 L 658.332031 1364.578125 L 882.597656 1240.078125 C 896.011719 1264.390625 910.679688 1288.28125 925.769531 1312.179688 L 727.5 1422 L 408.082031 2380.671875 L 880.917969 2089.761719 L 1005.421875 1434.160156 "/>
  <path fill-rule="nonzero" fill="rgb(6.266785%, 5.734253%, 5.047607%)" fill-opacity="1" d="M 1295.949219 1143.039062 C 1179.640625 1143.039062 1072.660156 1068.980469 1031.949219 959.988281 C 990.351562 848.628906 1024.839844 719.839844 1116.359375 644.101562 C 1206.988281 569.101562 1339.03125 558.820312 1440.128906 619.089844 C 1540.898438 679.171875 1594.5 798.621094 1572.800781 913.839844 C 1548.039062 1045.300781 1429.609375 1143.039062 1295.949219 1143.039062 Z M 1757.011719 880.230469 C 1757.011719 716.859375 1669.109375 559.96875 1525.640625 480.050781 C 1453.691406 439.96875 1377.359375 426.339844 1295.949219 426.339844 C 1212.230469 426.339844 1133.820312 440.988281 1060.460938 483.339844 C 921.386719 563.621094 830.175781 722.550781 834.992188 883.878906 C 840.4375 1066.390625 956.761719 1234.820312 1060.21875 1381.390625 C 1133.398438 1485.058594 1211.929688 1585.78125 1295.949219 1680.949219 C 1441.859375 1515.648438 1581.859375 1334.359375 1682.640625 1137.789062 C 1724.96875 1055.210938 1757.011719 972.191406 1757.011719 880.230469 "/>
</svg>
